<?xml version="1.0" standalone="no"?><!DOCTYPE svg PUBLIC "-//W3C//DTD SVG 1.1//EN" "http://www.w3.org/Graphics/SVG/1.1/DTD/svg11.dtd"><svg t="1617412844124" class="icon" viewBox="0 0 1024 1024" version="1.1" xmlns="http://www.w3.org/2000/svg" p-id="2074" xmlns:xlink="http://www.w3.org/1999/xlink" width="200" height="200"><defs><style type="text/css"></style></defs><path d="M880.9984 512c0-52.3776 32.9216-96.8192 79.0016-114.4832a460.1344 460.1344 0 0 0-50.176-121.2928c-45.2096 20.1216-99.7888 11.8784-136.8064-25.1904-37.0176-37.0176-45.2096-91.6992-25.088-136.8064a458.8032 458.8032 0 0 0-121.3952-50.176c-17.8176 46.08-62.208 79.0016-114.4832 79.0016-52.3776 0-96.8192-32.9216-114.4832-79.0016a460.1344 460.1344 0 0 0-121.2928 50.176c20.1216 45.2096 11.8784 99.7888-25.088 136.8064s-91.6992 45.2096-136.8064 25.1904a453.61664 453.61664 0 0 0-50.2784 121.2928c46.08 17.8176 79.0016 62.208 79.0016 114.4832 0 52.3776-32.9216 96.8192-79.0016 114.4832a460.1344 460.1344 0 0 0 50.176 121.2928c45.2096-20.1216 99.7888-11.8784 136.8064 25.1904 37.0176 37.0176 45.2096 91.6992 25.088 136.8064a458.8032 458.8032 0 0 0 121.3952 50.176c17.8176-46.08 62.208-79.0016 114.4832-79.0016 52.3776 0 96.8192 32.9216 114.4832 79.0016a460.1344 460.1344 0 0 0 121.2928-50.176c-20.1216-45.2096-11.8784-99.7888 25.088-136.8064s91.6992-45.2096 136.8064-25.1904c22.3232-37.376 39.3216-78.08 50.2784-121.2928-46.08-17.664-79.0016-62.1056-79.0016-114.4832zM512 634.9824c-67.8912 0-122.9824-55.0912-122.9824-122.9824S444.1088 389.0176 512 389.0176s122.9824 55.0912 122.9824 122.9824-55.0912 122.9824-122.9824 122.9824z" fill="#2A2B2E" p-id="2075"></path></svg>