<?xml version="1.0" standalone="no"?><!DOCTYPE svg PUBLIC "-//W3C//DTD SVG 1.1//EN" "http://www.w3.org/Graphics/SVG/1.1/DTD/svg11.dtd"><svg t="1618296268873" class="icon" viewBox="0 0 1024 1024" version="1.1" xmlns="http://www.w3.org/2000/svg" p-id="6332" xmlns:xlink="http://www.w3.org/1999/xlink" width="200" height="200"><defs><style type="text/css"></style></defs><path d="M746.9 559.6c-8.6 0-17.2-3-24.1-9.1l-100-87.4c-7.8-6.9-12.4-16.8-12.5-27.2-0.1-10.4 4.3-20.4 12-27.5l100-90.7c14.9-13.6 38.1-12.4 51.7 2.6 13.6 14.9 12.4 38.1-2.6 51.7l-69.5 63 69.1 60.4c15.2 13.3 16.8 36.4 3.5 51.6-7.3 8.4-17.4 12.6-27.6 12.6zM510.1 856.1c-101.6 0-197.1-50.2-283.8-149.1-13.3-15.2-11.8-38.3 3.4-51.6 15.2-13.4 38.3-11.8 51.6 3.4 73.2 83.5 148 124.1 228.8 124.1s155.7-40.6 229.1-124.2c13.3-15.2 36.5-16.7 51.7-3.3 15.2 13.3 16.7 36.5 3.3 51.7-86.9 98.8-182.4 149-284.1 149z" p-id="6333"></path></svg>